{"accessors" : [{"bufferView" : 0, "byteOffset" : 0, "componentType" : 5123, "count" : 1638, "type" : "SCALAR", "max" : [1313], "min" : [0]}, {"bufferView" : 1, "byteOffset" : 0, "componentType" : 5126, "count" : 1314, "type" : "VEC3", "max" : [0.08122599869966507, 0.04101400077342987, 0.009479000233113766], "min" : [-0.08122599869966507, -0.0843459963798523, -0.14632000029087067], "name" : "POSITION"}, {"bufferView" : 1, "byteOffset" : 12, "componentType" : 5126, "count" : 1314, "type" : "VEC2", "max" : [0.999921977519989, 0.999921977519989], "min" : [7.79999973019585E-05, 0.04683798551559448], "name" : "TEXCOORD_0"}, {"bufferView" : 1, "byteOffset" : 20, "componentType" : 5126, "count" : 1314, "type" : "VEC3", "max" : [0.9900136590003967, 0.5435065627098083, 0.9981420636177063], "min" : [-0.9900136590003967, -0.9037184715270996, -0.3951126039028168], "name" : "NORMAL"}], "asset" : {"generator" : "Aspose.3D 23.11.1", "version" : "2.0"}, "buffers" : [{"uri" : "data:application/octet-stream;base64,", "byteLength" : 55700}], "bufferViews" : [{"buffer" : 0, "byteOffset" : 0, "byteLength" : 3276, "target" : 34963}, {"buffer" : 0, "byteOffset" : 3280, "byteLength" : 52416, "byteStride" : 32, "target" : 34962}], "meshes" : [{"primitives" : [{"attributes" : {"POSITION" : 1, "TEXCOORD_0" : 2, "NORMAL" : 3}, "indices" : 0, "mode" : 4}], "name" : ""}], "nodes" : [{"mesh" : 0, "name" : "mask_LP_RetopoFlow.000"}], "scene" : 0, "scenes" : [{"nodes" : [0]}]}